<svg xmlns="http://www.w3.org/2000/svg" width="54" height="19" viewBox="0 0 54 19" fill="none">
    <path fill-rule="evenodd" clip-rule="evenodd" d="M12.8105 0V18.5358H15.4585V0H12.8105ZM5.5285 1.30391C2.7401 1.30391 0.673884 3.83152 0.673884 7.88371C0.673884 11.956 2.7401 14.5036 5.5285 14.5036C8.31689 14.5036 10.3831 11.956 10.3831 7.88371C10.3831 3.83152 8.31689 1.30391 5.5285 1.30391ZM7.83554 7.8838C7.83554 5.15559 6.8927 3.69118 5.5286 3.69118C4.16449 3.69118 3.22165 5.15559 3.22165 7.8838C3.22165 10.6321 4.16449 12.0965 5.5286 12.0965C6.8927 12.0965 7.83554 10.6321 7.83554 7.8838Z" fill="white"/>
    <path fill-rule="evenodd" clip-rule="evenodd" d="M31.8482 0.0199777H34.3558V13.9619H31.8482V0.0199777ZM21.7373 8.68604H24.1245V6.27879H21.7373V8.68604ZM26.572 7.24193H28.1368V13.4205H30.6042V0.321094H28.1368V5.11553H26.572V1.42442H24.1247V4.25293H21.7375V1.42442H19.25V10.7926H26.572V7.24193ZM24.5658 12.1565V16.0682H34.8167V18.1746H21.9179V12.1565H24.5658Z" fill="white"/>
    <path fill-rule="evenodd" clip-rule="evenodd" d="M41.7184 9.54892H52.0094V11.6352H39.0304V1.36429H51.869V3.49069H41.7184V5.43654H51.4477V7.4827H41.7184V9.54892ZM37.0641 16.3694V14.2229H53.7944V16.3694H37.0641Z" fill="white"/>
    </svg>